<svg width="200" height="200" xmlns="http://www.w3.org/2000/svg">
  <!-- Fond blanc -->
  <rect width="200" height="200" fill="white"/>
  
  <!-- Cadre principal -->
  <rect x="20" y="20" width="160" height="160" fill="none" stroke="#333" stroke-width="2"/>
  
  <!-- Ligne horizontale centrale -->
  <line x1="20" y1="100" x2="180" y2="100" stroke="#333" stroke-width="2"/>
  
  <!-- Ligne verticale centrale -->
  <line x1="100" y1="20" x2="100" y2="180" stroke="#333" stroke-width="2"/>
  
  <!-- Lignes de fond dans chaque quadrant -->
  <!-- Quadrant 1 (haut-gauche) -->
  <g stroke="#ddd" stroke-width="0.5">
    <line x1="30" y1="30" x2="90" y2="30"/>
    <line x1="30" y1="40" x2="90" y2="40"/>
    <line x1="30" y1="50" x2="90" y2="50"/>
    <line x1="30" y1="60" x2="90" y2="60"/>
    <line x1="30" y1="70" x2="90" y2="70"/>
    <line x1="30" y1="80" x2="90" y2="80"/>
    <line x1="30" y1="90" x2="90" y2="90"/>
  </g>
  
  <!-- Quadrant 2 (haut-droite) -->
  <g stroke="#ddd" stroke-width="0.5">
    <line x1="110" y1="30" x2="170" y2="30"/>
    <line x1="110" y1="40" x2="170" y2="40"/>
    <line x1="110" y1="50" x2="170" y2="50"/>
    <line x1="110" y1="60" x2="170" y2="60"/>
    <line x1="110" y1="70" x2="170" y2="70"/>
    <line x1="110" y1="80" x2="170" y2="80"/>
    <line x1="110" y1="90" x2="170" y2="90"/>
  </g>
  
  <!-- Quadrant 3 (bas-gauche) -->
  <g stroke="#ddd" stroke-width="0.5">
    <line x1="30" y1="110" x2="90" y2="110"/>
    <line x1="30" y1="120" x2="90" y2="120"/>
    <line x1="30" y1="130" x2="90" y2="130"/>
    <line x1="30" y1="140" x2="90" y2="140"/>
    <line x1="30" y1="150" x2="90" y2="150"/>
    <line x1="30" y1="160" x2="90" y2="160"/>
    <line x1="30" y1="170" x2="90" y2="170"/>
  </g>
  
  <!-- Quadrant 4 (bas-droite) -->
  <g stroke="#ddd" stroke-width="0.5">
    <line x1="110" y1="110" x2="170" y2="110"/>
    <line x1="110" y1="120" x2="170" y2="120"/>
    <line x1="110" y1="130" x2="170" y2="130"/>
    <line x1="110" y1="140" x2="170" y2="140"/>
    <line x1="110" y1="150" x2="170" y2="150"/>
    <line x1="110" y1="160" x2="170" y2="160"/>
    <line x1="110" y1="170" x2="170" y2="170"/>
  </g>
  
  <!-- Titres et numérotation des quadrants -->
  <!-- Quadrant 1 -->
  <text x="60" y="32" text-anchor="middle" font-family="Arial, sans-serif" font-size="7" font-weight="bold" fill="#666">
    <tspan x="60" dy="0">URGENT &amp;</tspan>
    <tspan x="60" dy="8">IMPORTANT</tspan>
  </text>
  <text x="60" y="70" text-anchor="middle" font-family="Arial, sans-serif" font-size="24" font-weight="bold" fill="#ccc">1</text>
  
  <!-- Quadrant 2 -->
  <text x="140" y="32" text-anchor="middle" font-family="Arial, sans-serif" font-size="7" font-weight="bold" fill="#666">
    <tspan x="140" dy="0">NON URGENT &amp;</tspan>
    <tspan x="140" dy="8">IMPORTANT</tspan>
  </text>
  <text x="140" y="70" text-anchor="middle" font-family="Arial, sans-serif" font-size="24" font-weight="bold" fill="#ccc">2</text>
  
  <!-- Quadrant 3 -->
  <text x="60" y="112" text-anchor="middle" font-family="Arial, sans-serif" font-size="7" font-weight="bold" fill="#666">
    <tspan x="60" dy="0">URGENT &amp;</tspan>
    <tspan x="60" dy="8">NON IMPORTANT</tspan>
  </text>
  <text x="60" y="150" text-anchor="middle" font-family="Arial, sans-serif" font-size="24" font-weight="bold" fill="#ccc">3</text>
  
  <!-- Quadrant 4 -->
  <text x="140" y="112" text-anchor="middle" font-family="Arial, sans-serif" font-size="7" font-weight="bold" fill="#666">
    <tspan x="140" dy="0">NON URGENT &amp;</tspan>
    <tspan x="140" dy="8">NON IMPORTANT</tspan>
  </text>
  <text x="140" y="150" text-anchor="middle" font-family="Arial, sans-serif" font-size="24" font-weight="bold" fill="#ccc">4</text>
</svg>